<svg width="1054" height="672" viewBox="0 0 1054 672" fill="none" xmlns="http://www.w3.org/2000/svg">
<path d="M1.70037 715.77C0.468058 715.749 0.357427 713.952 1.57785 713.78L157.577 691.788C181.778 688.376 203.659 675.564 218.478 656.128V656.128C241 626.589 278.956 613.307 314.983 622.36L482.032 664.335C516.899 673.096 553.59 671.216 587.378 658.937L642.319 638.971C697.258 619.005 740.388 575.517 759.898 520.415L767.223 499.728C785.28 448.73 828.44 410.705 881.307 399.217V399.217C948.338 384.651 998.025 328.061 1003.8 259.708L1005.82 235.768V235.768C999.308 117.229 1089.07 15.3775 1207.49 6.94201L1304.94 0L1362.26 739L1.70037 715.77Z" fill="url(#paint0_linear_4_23)"/>
<defs>
<linearGradient id="paint0_linear_4_23" x1="675.631" y1="0" x2="675.631" y2="739" gradientUnits="userSpaceOnUse">
<stop offset="0.453125" stop-color="#990720"/>
<stop offset="1" stop-color="#990720" stop-opacity="0"/>
</linearGradient>
</defs>
</svg>
