<svg width="1065" height="672" viewBox="0 0 1065 672" fill="none" xmlns="http://www.w3.org/2000/svg">
<path d="M104.7 693.626C103.468 693.605 103.357 691.808 104.578 691.636L260.577 669.644C284.778 666.232 306.659 653.42 321.478 633.984V633.984C344 604.445 381.956 591.163 417.983 600.216L585.032 642.191C619.899 650.952 656.59 649.072 690.378 636.793L745.319 616.827C800.258 596.861 843.388 553.373 862.898 498.271L868.467 482.542C887.616 428.461 933.384 388.139 989.446 375.956L996.975 374.32C1057.62 361.142 1104.44 312.858 1115.75 251.833V251.833V251.833C1130.2 117.67 1239.8 13.779 1374.54 6.52992L1495.92 0L1465.26 716.856L104.7 693.626Z" fill="#EB254C"/>
<path d="M12.7004 715.77C11.4681 715.749 11.3574 713.952 12.5778 713.78L168.577 691.788C192.778 688.376 214.659 675.564 229.478 656.128V656.128C252 626.589 289.956 613.307 325.983 622.36L493.032 664.335C527.899 673.096 564.59 671.216 598.378 658.937L653.319 638.971C708.258 619.005 751.388 575.517 770.898 520.415L778.223 499.728C796.28 448.73 839.44 410.705 892.307 399.217V399.217C959.338 384.651 1009.03 328.061 1014.8 259.708L1016.82 235.768V235.768C1010.31 117.229 1100.07 15.3775 1218.49 6.94201L1315.94 0L1373.26 739L12.7004 715.77Z" fill="url(#paint0_linear_5_27)"/>
<defs>
<linearGradient id="paint0_linear_5_27" x1="686.631" y1="0" x2="686.631" y2="739" gradientUnits="userSpaceOnUse">
<stop offset="0.453125" stop-color="#990720"/>
<stop offset="1" stop-color="#990720" stop-opacity="0"/>
</linearGradient>
</defs>
</svg>
